<svg viewBox="0 0 200 200" xmlns="http://www.w3.org/2000/svg">
  <defs>
    <linearGradient id="dna" x1="0" y1="0" x2="1" y2="1">
      <stop offset="0%" stop-color="#f2a03d"/>
      <stop offset="100%" stop-color="#f2dc6d"/>
    </linearGradient>
  </defs>
  <circle cx="100" cy="100" r="78" fill="none" stroke="#b5d8c1" stroke-width="10" opacity="0.55"/>
  <path d="M 100 24 A 76 76 0 0 1 100 176" fill="none" stroke="#3aada9" stroke-width="9" stroke-linecap="round"/>
  <path d="M60 40 C80 55 40 75 60 90 C80 105 40 125 60 140 C75 150 78 158 76 165" fill="none" stroke="url(#dna)" stroke-width="5" stroke-linecap="round"/>
  <path d="M46 48 C66 63 26 83 46 98 C66 113 26 133 46 148" fill="none" stroke="url(#dna)" stroke-width="5" stroke-linecap="round" opacity="0.85"/>
  <g stroke="#3aada9" stroke-width="3.5" fill="none" stroke-linejoin="round">
    <path d="M85 118 L100 92 L130 92 L145 118 L130 144 L100 144 Z"/>
    <line x1="72" y1="105" x2="85" y2="118"/>
    <line x1="145" y1="118" x2="160" y2="105"/>
    <line x1="160" y1="105" x2="172" y2="98"/>
    <line x1="160" y1="105" x2="172" y2="112"/>
    <circle cx="72" cy="105" r="4" fill="#3aada9"/>
    <circle cx="172" cy="98" r="4" fill="#3aada9"/>
    <circle cx="172" cy="112" r="4" fill="#3aada9"/>
    <line x1="85" y1="118" x2="72" y2="132"/>
    <circle cx="72" cy="132" r="4" fill="#3aada9"/>
  </g>
</svg>
